<svg xmlns="http://www.w3.org/2000/svg" viewBox="0 0 1440 320"><path fill="#0099ff" fill-opacity="1" d="M0,224L30,224C60,224,120,224,180,234.7C240,245,300,267,360,240C420,213,480,139,540,128C600,117,660,171,720,181.3C780,192,840,160,900,170.7C960,181,1020,235,1080,229.3C1140,224,1200,160,1260,160C1320,160,1380,224,1410,256L1440,288L1440,0L1410,0C1380,0,1320,0,1260,0C1200,0,1140,0,1080,0C1020,0,960,0,900,0C840,0,780,0,720,0C660,0,600,0,540,0C480,0,420,0,360,0C300,0,240,0,180,0C120,0,60,0,30,0L0,0Z"></path></svg>